# xmcd
#
# Track frame offsets:
#	150
#	16872
#	30239
#	44597
#	62227
#	84654
#	103503
#	120300
#	142198
#	157812
#	173595
#	187668
#
# Disc length: 2762 seconds
#
# Revision: 1
# Processed by: cddbd v1.5.2PL0 Copyright (c) Steve Scherf et al.
# Submitted via: audiograbber 1.83.01
#
DISCID=8a0ac80c
DTITLE=Big Blind - Circus Left Town
DYEAR=2009
DGENRE=Blues
TTITLE0=Like Me
TTITLE1=Freak Show
TTITLE2=Hold On
TTITLE3=3:45
TTITLE4=13 Angels
TTITLE5=Circus Left Town
TTITLE6=Russian Roulette
TTITLE7=Devil's Laughin'
TTITLE8=My Ol' Suitcase
TTITLE9=Rolling Your Way
TTITLE10=So Cold
TTITLE11=Just For You
EXTD=
EXTT0=
EXTT1=
EXTT2=
EXTT3=
EXTT4=
EXTT5=
EXTT6=
EXTT7=
EXTT8=
EXTT9=
EXTT10=
EXTT11=
PLAYORDER=
